<?xml version="1.0" encoding="utf-8"?>
<svg width="1180px" height="516px" viewBox="0 0 1180 516" version="1.1" xmlns:xlink="http://www.w3.org/1999/xlink" xmlns="http://www.w3.org/2000/svg">
  <defs>
    <path d="M0 0L274 0L274 274L0 274L0 0Z" id="path_1" />
    <clipPath id="mask_1">
      <use xlink:href="#path_1" />
    </clipPath>
  </defs>
  <g id="Group">
    <path d="M49.999 0L1130 0Q1131.23 0 1132.45 0.060226Q1133.68 0.120452 1134.9 0.240759Q1136.12 0.361066 1137.34 0.541164Q1138.55 0.721262 1139.76 0.960717Q1140.96 1.20017 1142.15 1.49841Q1143.34 1.79664 1144.51 2.15294Q1145.69 2.50924 1146.85 2.92274Q1148 3.33624 1149.13 3.80595Q1150.27 4.27565 1151.38 4.80044Q1152.49 5.32522 1153.57 5.90382Q1154.65 6.48241 1155.71 7.11343Q1156.76 7.74444 1157.78 8.42635Q1158.8 9.10826 1159.79 9.83943Q1160.77 10.5706 1161.72 11.3492Q1162.67 12.1279 1163.58 12.9522Q1164.49 13.7765 1165.36 14.6444Q1166.22 15.5123 1167.05 16.4217Q1167.87 17.3312 1168.65 18.28Q1169.43 19.2288 1170.16 20.2146Q1170.89 21.2005 1171.57 22.221Q1172.26 23.2416 1172.89 24.2944Q1173.52 25.3472 1174.1 26.4296Q1174.67 27.5121 1175.2 28.6217Q1175.72 29.7312 1176.19 30.8652Q1176.66 31.9992 1177.08 33.1548Q1177.49 34.3105 1177.85 35.4851Q1178.2 36.6596 1178.5 37.8502Q1178.8 39.0409 1179.04 40.2447Q1179.28 41.4485 1179.46 42.6626Q1179.64 43.8767 1179.76 45.0982Q1179.88 46.3197 1179.94 47.5457Q1180 48.7716 1180 49.999L1180 466.001Q1180 467.228 1179.94 468.454Q1179.88 469.68 1179.76 470.902Q1179.64 472.123 1179.46 473.337Q1179.28 474.551 1179.04 475.755Q1178.8 476.959 1178.5 478.15Q1178.2 479.34 1177.85 480.515Q1177.49 481.689 1177.08 482.845Q1176.66 484.001 1176.19 485.135Q1175.72 486.269 1175.2 487.378Q1174.67 488.488 1174.1 489.57Q1173.52 490.653 1172.89 491.706Q1172.26 492.758 1171.57 493.779Q1170.89 494.799 1170.16 495.785Q1169.43 496.771 1168.65 497.72Q1167.87 498.669 1167.05 499.578Q1166.22 500.488 1165.36 501.356Q1164.49 502.224 1163.58 503.048Q1162.67 503.872 1161.72 504.651Q1160.77 505.429 1159.79 506.161Q1158.8 506.892 1157.78 507.574Q1156.76 508.255 1155.71 508.886Q1154.65 509.518 1153.57 510.096Q1152.49 510.675 1151.38 511.199Q1150.27 511.724 1149.13 512.194Q1148 512.664 1146.84 513.077Q1145.69 513.491 1144.51 513.847Q1143.34 514.203 1142.15 514.502Q1140.96 514.8 1139.76 515.039Q1138.55 515.279 1137.34 515.459Q1136.12 515.639 1134.9 515.759Q1133.68 515.88 1132.45 515.94Q1131.23 516 1130 516L49.999 516Q48.7716 516 47.5457 515.94Q46.3197 515.88 45.0982 515.759Q43.8767 515.639 42.6626 515.459Q41.4485 515.279 40.2447 515.039Q39.0409 514.8 37.8502 514.502Q36.6596 514.203 35.4851 513.847Q34.3105 513.491 33.1548 513.077Q31.9992 512.664 30.8652 512.194Q29.7312 511.724 28.6217 511.199Q27.5121 510.675 26.4296 510.096Q25.3472 509.518 24.2944 508.887Q23.2416 508.255 22.221 507.574Q21.2005 506.892 20.2146 506.161Q19.2288 505.429 18.28 504.651Q17.3312 503.872 16.4217 503.048Q15.5123 502.223 14.6444 501.356Q13.7765 500.488 12.9522 499.578Q12.1279 498.669 11.3493 497.72Q10.5706 496.771 9.83943 495.785Q9.10826 494.799 8.42635 493.779Q7.74444 492.758 7.11343 491.706Q6.48241 490.653 5.90382 489.57Q5.32522 488.488 4.80044 487.378Q4.27565 486.269 3.80595 485.135Q3.33624 484.001 2.92274 482.845Q2.50924 481.689 2.15294 480.515Q1.79664 479.34 1.49841 478.15Q1.20017 476.959 0.960717 475.755Q0.721262 474.551 0.541164 473.337Q0.361066 472.123 0.240759 470.902Q0.120452 469.68 0.060226 468.454Q0 467.228 0 466.001L0 49.999Q0 48.7716 0.060226 47.5457Q0.120452 46.3197 0.240759 45.0982Q0.361066 43.8767 0.541164 42.6626Q0.721262 41.4485 0.960717 40.2447Q1.20017 39.0409 1.49841 37.8502Q1.79664 36.6596 2.15294 35.4851Q2.50924 34.3105 2.92274 33.1548Q3.33624 31.9992 3.80595 30.8652Q4.27565 29.7312 4.80044 28.6217Q5.32522 27.5121 5.90382 26.4296Q6.48241 25.3472 7.11343 24.2944Q7.74444 23.2416 8.42635 22.221Q9.10826 21.2005 9.83943 20.2146Q10.5706 19.2288 11.3492 18.28Q12.1279 17.3312 12.9522 16.4217Q13.7765 15.5123 14.6444 14.6444Q15.5123 13.7765 16.4217 12.9522Q17.3312 12.1279 18.28 11.3493Q19.2288 10.5706 20.2146 9.83943Q21.2005 9.10826 22.221 8.42635Q23.2416 7.74444 24.2944 7.11343Q25.3472 6.48241 26.4296 5.90382Q27.5121 5.32522 28.6217 4.80044Q29.7312 4.27565 30.8652 3.80595Q31.9992 3.33624 33.1548 2.92274Q34.3105 2.50924 35.4851 2.15294Q36.6596 1.79664 37.8502 1.49841Q39.0409 1.20017 40.2447 0.960717Q41.4485 0.721262 42.6626 0.541164Q43.8767 0.361066 45.0982 0.240759Q46.3197 0.120452 47.5457 0.060226Q48.7716 0 49.999 0Z" id="Rectangle-2" fill="#F2CCD5" fill-rule="evenodd" stroke="none" />
    <g id="@sernhandler" fill="#261340" transform="translate(320.99997 193.1)">
      <path d="M293.76 109.1L327.36 18.86L339.84 18.86L306.24 109.1L293.76 109.1ZM31.2 115.724Q22.56 115.724 16.32 112.364Q10.08 109.004 6.624 102.764Q3.168 96.524 3.168 87.884L3.168 55.34Q3.168 46.7 6.432 40.46Q9.696 34.22 15.744 30.86Q21.792 27.5 30.24 27.5Q37.92 27.5 43.44 30.428Q48.96 33.356 51.936 38.588Q54.912 43.82 54.912 50.732L54.912 92.3L45.792 92.3L46.368 87.02L44.5874 87.02Q43.9459 89.213 42.096 90.812Q39.264 93.26 34.56 93.26Q28.512 93.26 25.2 89.228Q21.888 85.196 21.888 77.804L21.888 66.86Q21.888 59.468 25.2 55.436Q28.512 51.404 34.56 51.404Q39.264 51.404 42.096 53.804Q44.2008 55.5878 44.7413 58.22L46.464 58.22L44.928 51.692L44.928 50.732Q44.928 46.412 43.2 43.148Q41.472 39.884 38.208 38.012Q34.944 36.14 30.24 36.14Q22.08 36.14 17.616 41.18Q13.152 46.22 13.152 55.34L13.152 87.884Q13.152 96.812 17.904 101.708Q22.656 106.604 31.2 106.604L37.92 106.604L37.92 115.724L31.2 115.724ZM352.992 28.46L352.992 98.54L364.992 98.54L364.992 65.516Q364.992 60.524 367.536 57.836Q370.08 55.148 374.496 55.148Q379.008 55.148 381.504 57.74Q384 60.332 384 65.132L384 98.54L396 98.54L396 63.884Q396 55.148 391.344 49.964Q386.688 44.78 378.912 44.78Q372.288 44.78 368.496 48.428Q365.555 51.2576 364.895 55.82L364.704 55.82L364.992 45.74L364.992 28.46L352.992 28.46ZM542.688 99.5Q534.816 99.5 529.968 94.028Q525.12 88.556 525.12 79.34L525.12 65.036Q525.12 55.724 529.92 50.252Q534.72 44.78 542.688 44.78Q549.216 44.78 553.056 48.476Q556.023 51.3315 556.697 55.82L556.992 55.82L556.608 43.244L556.608 28.46L568.608 28.46L568.608 98.54L556.896 98.54L556.896 88.46L556.697 88.46Q556.023 92.9485 553.056 95.804Q549.216 99.5 542.688 99.5ZM603.792 96.428C606.384 97.836 609.408 98.54 612.864 98.54L629.664 98.54L629.664 87.692L613.728 87.692Q610.848 87.692 609.168 86.012Q607.488 84.332 607.488 81.452L607.488 28.46L578.592 28.46L578.592 39.308L595.488 39.308L595.488 81.452Q595.488 86.54 597.696 90.428Q599.904 94.316 603.792 96.428ZM132.384 96.908Q137.376 99.5 144.096 99.5Q152.544 99.5 158.448 95.42Q164.352 91.34 165.696 84.524L153.888 84.524Q153.216 87.212 150.72 88.604Q148.224 89.996 144.192 89.996Q138.912 89.996 136.224 87.164Q133.536 84.332 133.536 78.764L133.536 75.02L166.08 75.02L166.08 65.516Q166.08 59.276 163.344 54.62Q160.608 49.964 155.664 47.372Q150.72 44.78 144.096 44.78Q137.376 44.78 132.384 47.372Q127.392 49.964 124.656 54.62Q121.92 59.276 121.92 65.516L121.92 78.764Q121.92 85.004 124.656 89.66Q127.392 94.316 132.384 96.908ZM181.824 98.54L181.824 45.74L193.152 45.74L193.152 55.82L193.187 55.82Q194.108 51.6968 196.416 49.1Q200.256 44.78 207.744 44.78Q216.288 44.78 221.184 50.06Q226.08 55.34 226.08 64.652L226.08 68.492L213.504 68.492L213.504 65.516Q213.504 60.428 210.864 57.644Q208.224 54.86 203.616 54.86Q198.912 54.86 196.368 57.644Q193.824 60.428 193.824 65.516L193.824 98.54L181.824 98.54ZM237.792 45.74L237.792 98.54L249.792 98.54L249.792 65.516Q249.792 60.524 252.336 57.836Q254.88 55.148 259.296 55.148Q263.808 55.148 266.304 57.74Q268.8 60.332 268.8 65.132L268.8 98.54L280.8 98.54L280.8 63.884Q280.8 55.148 276.144 49.964Q271.488 44.78 263.712 44.78Q257.088 44.78 253.296 48.428Q250.355 51.2576 249.695 55.82L249.504 55.82L249.504 45.74L237.792 45.74ZM426.144 99.5Q417.984 99.5 413.28 95.18Q408.576 90.86 408.576 83.564Q408.576 75.788 413.76 71.564Q418.944 67.34 428.448 67.34L441.6 67.34L441.6 62.828Q441.6 58.988 439.104 56.828Q436.608 54.668 432.288 54.668Q428.352 54.668 425.76 56.396Q423.168 58.124 422.688 61.1L410.976 61.1Q411.84 53.612 417.696 49.196Q423.552 44.78 432.672 44.78Q442.368 44.78 447.984 49.628Q453.6 54.476 453.6 62.732L453.6 98.54L441.984 98.54L441.984 89.324L441.751 89.324Q440.98 93.3911 437.664 96.044Q433.344 99.5 426.144 99.5ZM468.192 45.74L468.192 98.54L480.192 98.54L480.192 65.516Q480.192 60.524 482.736 57.836Q485.28 55.148 489.696 55.148Q494.208 55.148 496.704 57.74Q499.2 60.332 499.2 65.132L499.2 98.54L511.2 98.54L511.2 63.884Q511.2 55.148 506.544 49.964Q501.888 44.78 494.112 44.78Q487.488 44.78 483.696 48.428Q480.755 51.2576 480.095 55.82L479.904 55.82L479.904 45.74L468.192 45.74ZM662.496 99.5Q655.776 99.5 650.784 96.908Q645.792 94.316 643.056 89.66Q640.32 85.004 640.32 78.764L640.32 65.516Q640.32 59.276 643.056 54.62Q645.792 49.964 650.784 47.372Q655.776 44.78 662.496 44.78Q669.12 44.78 674.064 47.372Q679.008 49.964 681.744 54.62Q684.48 59.276 684.48 65.516L684.48 75.02L651.936 75.02L651.936 78.764Q651.936 84.332 654.624 87.164Q657.312 89.996 662.592 89.996Q666.624 89.996 669.12 88.604Q671.616 87.212 672.288 84.524L684.096 84.524Q682.752 91.34 676.848 95.42Q670.944 99.5 662.496 99.5ZM700.224 45.74L700.224 98.54L712.224 98.54L712.224 65.516Q712.224 60.428 714.768 57.644Q717.312 54.86 722.016 54.86Q726.624 54.86 729.264 57.644Q731.904 60.428 731.904 65.516L731.904 68.492L744.48 68.492L744.48 64.652Q744.48 55.34 739.584 50.06Q734.688 44.78 726.144 44.78Q718.656 44.78 714.816 49.1Q712.508 51.6968 711.587 55.82L711.552 55.82L711.552 45.74L700.224 45.74ZM84.384 99.404Q78.336 99.404 73.824 97.484Q69.312 95.564 66.768 92.156Q64.224 88.748 64.032 84.14L76.032 84.14Q76.224 86.636 78.48 88.172Q80.736 89.708 84.384 89.708L88.608 89.708Q93.024 89.708 95.232 87.98Q97.44 86.252 97.44 83.276Q97.44 80.492 95.472 78.908Q93.504 77.324 89.376 76.844L82.848 75.884Q73.824 74.636 69.6 71.084Q65.376 67.532 65.376 60.428Q65.376 53.036 70.368 48.956Q75.36 44.876 85.056 44.876L88.704 44.876Q97.536 44.876 102.816 48.812Q108.096 52.748 108.48 59.372L96.48 59.372Q96.192 57.26 94.128 55.916Q92.064 54.572 88.704 54.572L85.056 54.572Q80.928 54.572 79.056 56.06Q77.184 57.548 77.184 60.428Q77.184 63.116 78.816 64.412Q80.448 65.708 84.096 66.284L90.912 67.244Q100.32 68.588 104.784 72.284Q109.248 75.98 109.248 83.18Q109.248 90.86 104.016 95.132Q98.784 99.404 88.608 99.404L84.384 99.404ZM154.464 67.3476L154.464 65.42Q154.464 59.948 151.872 57.02Q149.28 54.092 144.096 54.092Q138.912 54.092 136.224 57.068Q133.536 60.044 133.536 65.516L133.536 67.532L154.464 67.3476ZM672.864 65.42L672.864 67.3476L651.936 67.532L651.936 65.516Q651.936 60.044 654.624 57.068Q657.312 54.092 662.496 54.092Q667.68 54.092 670.272 57.02Q672.864 59.948 672.864 65.42ZM546.912 89.132Q551.52 89.132 554.064 86.396Q556.608 83.66 556.608 78.764L556.608 65.516Q556.608 60.62 554.064 57.884Q551.52 55.148 546.912 55.148Q542.304 55.148 539.712 57.836Q537.12 60.524 537.12 65.516L537.12 78.764Q537.12 83.756 539.712 86.444Q542.304 89.132 546.912 89.132ZM38.4 85.964Q41.856 85.964 43.392 83.948Q44.928 81.932 44.928 77.42L44.928 66.86Q44.928 62.828 43.296 60.764Q41.664 58.7 38.4 58.7Q35.136 58.7 33.504 60.764Q31.872 62.828 31.872 66.86L31.872 77.804Q31.872 82.124 33.504 84.044Q35.136 85.964 38.4 85.964ZM430.08 90.476Q435.168 90.476 438.384 87.884Q441.6 85.292 441.6 81.164L441.6 74.732L428.64 74.732Q424.992 74.732 422.784 76.844Q420.576 78.956 420.576 82.412Q420.576 86.156 423.12 88.316Q425.664 90.476 430.08 90.476Z" />
    </g>
    <g id="image2vector" transform="translate(47 118.099976)">
      <path d="M0 0L274 0L274 274L0 274L0 0Z" id="Background" fill="#FFFFFF" fill-opacity="0" fill-rule="evenodd" stroke="none" />
      <g clip-path="url(#mask_1)">
        <g id="svgg" transform="translate(68.8296 44.153015)">
          <path d="M68.2546 62.1062C68.1238 62.2377 68.1533 123.672 68.2841 123.672C68.3766 123.672 71.4673 122.288 73.9422 121.138C74.221 121.008 75.791 120.294 77.4309 119.552C79.0701 118.808 80.5826 118.121 80.7922 118.023C81.0011 117.924 82.5711 117.213 84.2809 116.441C85.99 115.67 87.56 114.957 87.7689 114.858C88.1826 114.661 93.8408 112.083 94.8724 111.621C95.8821 111.169 101.291 108.714 101.85 108.455C102.129 108.325 103.327 107.783 104.514 107.249C105.699 106.716 106.955 106.146 107.304 105.983C107.988 105.661 108.226 105.552 111.49 104.076C112.676 103.539 113.875 102.996 114.154 102.868C114.433 102.74 116.06 101.999 117.769 101.22C119.479 100.442 121.106 99.6997 121.385 99.5709C121.664 99.4415 123.177 98.7537 124.747 98.0427C126.316 97.3317 127.886 96.6193 128.235 96.4583C128.583 96.298 129.84 95.7274 131.025 95.191C136.355 92.7812 136.341 92.7887 136.005 92.6223C135.848 92.5442 134.748 92.0476 133.563 91.5174C132.376 90.9879 131.121 90.4186 130.772 90.2522C130.017 89.8932 129.241 89.5405 127.283 88.6664C126.481 88.3082 125.539 87.8807 125.19 87.7163C123.021 86.695 122.618 86.5162 122.304 86.4374C122.112 86.3895 121.956 86.3107 121.956 86.2621C121.956 86.2141 121.741 86.099 121.48 86.0072C121.218 85.9148 120.604 85.6538 120.116 85.4264C119.628 85.1989 118.9 84.8633 118.499 84.6804C118.098 84.4975 117.47 84.2098 117.103 84.042C116.737 83.8735 115.781 83.4392 114.978 83.0768C113.313 82.324 112.472 81.9418 111.3 81.4027C110.847 81.1938 110.19 80.8917 109.841 80.7314C109.492 80.5711 108.237 80.0018 107.05 79.4662C104.989 78.5359 104.507 78.3167 102.928 77.5886C102.544 77.4112 101.574 76.9714 100.772 76.6097C99.9688 76.2487 99.0269 75.8199 98.6782 75.6562C96.8349 74.7938 96.0567 74.4527 95.7656 74.3801C95.5889 74.3355 95.4437 74.2595 95.4437 74.2115C95.4437 74.1636 95.2292 74.0471 94.9676 73.9533C94.7059 73.8601 94.0641 73.5848 93.5407 73.343C93.0174 73.1005 92.2755 72.7607 91.8919 72.5874C90.8261 72.1059 90.0322 71.7401 88.8129 71.1688C88.2012 70.8824 87.6744 70.6482 87.6422 70.6482C87.61 70.6482 87.0832 70.4132 86.4715 70.1269C84.6919 69.2933 83.4062 68.7069 81.3628 67.7965C80.6305 67.4698 79.7455 67.0704 79.3969 66.9088C76.9637 65.7826 71.9084 63.4824 70.7076 62.9556C70.324 62.7878 69.7383 62.5083 69.4068 62.3357C68.8074 62.0233 68.4163 61.9453 68.2546 62.1062" id="path0" fill="#643C84" fill-rule="evenodd" stroke="none" />
          <path d="M67.6628 0.149384C67.4888 0.226103 66.9463 0.472704 66.4579 0.696011C65.9695 0.919324 65.2557 1.24607 64.8721 1.42142C64.4885 1.59679 63.2042 2.17767 62.0184 2.71197C60.832 3.24627 59.5764 3.81687 59.2271 3.98059C58.8784 4.14361 58.2222 4.44707 57.7687 4.65463C57.3152 4.86218 56.5624 5.21085 56.0959 5.42936C55.6294 5.64788 55.2184 5.82666 55.1835 5.82666C55.126 5.82666 53.9347 6.36507 52.2503 7.15214C50.8262 7.81796 49.9063 8.23786 48.7623 8.74408C47.4725 9.31468 46.5443 9.7339 45.5271 10.2045C45.1784 10.3662 43.9228 10.9381 42.7364 11.4759C40.7547 12.3739 39.7806 12.8171 38.4236 13.4377C38.1448 13.5651 36.8885 14.1364 35.6329 14.707C34.3773 15.2783 33.0642 15.8763 32.7155 16.0366C32.3662 16.1969 31.8243 16.4428 31.5099 16.5825C31.1962 16.7223 30.568 17.0086 30.1146 17.2182C29.6611 17.4278 28.6336 17.8929 27.8314 18.2519C27.0293 18.6108 26.0731 19.0444 25.7066 19.2157C25.3408 19.3869 24.7414 19.6637 24.3749 19.8315C24.0085 20 23.2673 20.3425 22.7275 20.5932C22.1877 20.8439 21.7158 21.0487 21.6795 21.0487C21.6425 21.0487 21.1993 21.2426 20.6944 21.4796C20.1896 21.7166 19.434 22.066 19.0155 22.2557C18.597 22.4454 17.9688 22.7318 17.6202 22.8914C17.2708 23.051 15.9584 23.6462 14.7021 24.2141C13.4465 24.782 12.1909 25.3526 11.9114 25.4827C11.4805 25.6841 9.00834 26.8068 6.3937 27.9892C6.0101 28.1631 5.41072 28.4378 5.06137 28.6009C4.26472 28.9728 2.60428 29.7304 1.16235 30.3805L0.0533359 30.8799L0.0519666 61.8001C0.051282 83.3289 0.0916957 92.7203 0.184172 92.7203C0.304049 92.7203 3.78864 91.1742 5.06137 90.5557C6.41151 89.9001 10.4078 88.1253 10.5482 88.1184C10.6352 88.1143 10.7065 88.0636 10.7065 88.0054C10.7065 87.9472 10.7654 87.8999 10.8373 87.8999C10.9085 87.8999 11.3798 87.7074 11.8833 87.4725C13.0957 86.9074 13.7828 86.5916 16.3515 85.423C17.5373 84.8832 18.8504 84.2852 19.2689 84.0941C20.3971 83.5803 21.028 83.2961 22.5035 82.6364C23.8091 82.0541 24.9812 81.5205 25.9922 81.0486C26.406 80.8554 29.6015 79.4004 33.0957 77.8147C33.445 77.6558 34.1013 77.3571 34.5547 77.1495C35.0082 76.9427 35.9213 76.5303 36.5844 76.233C37.2468 75.9357 38.2051 75.4994 38.7141 75.2637C39.2223 75.0274 39.6594 74.8342 39.6854 74.8342C39.7107 74.8342 40.3224 74.5554 41.0437 74.215C41.7657 73.8745 42.8412 73.382 43.4344 73.1211C44.0276 72.8594 44.9119 72.46 45.4003 72.2326C48.7767 70.664 51.927 69.259 52.251 69.1775C52.425 69.1337 52.5675 69.0515 52.5675 68.9939C52.5675 68.9364 52.6963 68.8494 52.8531 68.8015C53.01 68.7535 53.4813 68.5562 53.8998 68.3631C56.2994 67.2568 59.1825 65.9546 59.2319 65.9546C59.2634 65.9546 59.8175 65.7032 60.4635 65.3956C61.1094 65.0888 62.2938 64.5407 63.0966 64.1791C63.8988 63.8174 64.7838 63.4167 65.0626 63.2893C67.508 62.1727 68.1622 61.8953 68.3471 61.8953C68.5424 61.8953 70.2172 61.1849 71.7858 60.4369C72.1345 60.2711 72.7339 59.9951 73.1175 59.8238C73.5011 59.6526 74.1861 59.3423 74.6396 59.134C75.093 58.9258 76.0637 58.4847 76.7966 58.1545C77.9974 57.612 78.7167 57.2852 80.2846 56.5673C80.5641 56.4399 81.8197 55.8686 83.0753 55.2987C84.3316 54.7288 85.5872 54.1582 85.866 54.0301C87.4744 53.2944 88.1553 52.9848 89.3547 52.4443C90.7638 51.81 91.4426 51.5011 92.7797 50.888C93.2332 50.6805 93.8614 50.3928 94.1751 50.2496C94.4888 50.1071 95.306 49.7283 95.9903 49.4098C96.6746 49.0906 97.2617 48.8296 97.2939 48.8296C97.348 48.8296 98.5159 48.3042 99.8202 47.6939C100.505 47.3733 101.705 46.826 103.308 46.1033C105.506 45.1128 106.006 44.8854 106.67 44.5737C107.019 44.41 108.274 43.8387 109.461 43.3037C111.519 42.3762 112.658 41.8577 113.774 41.3384C114.052 41.209 115.309 40.6384 116.564 40.0705C117.82 39.5026 119.147 38.9012 119.514 38.7327C119.88 38.5649 120.508 38.2792 120.909 38.097C121.31 37.9155 122.052 37.573 122.557 37.336C123.062 37.099 123.505 36.9051 123.541 36.9051C123.578 36.9051 124.049 36.6996 124.589 36.4482C125.129 36.1975 125.942 35.8214 126.395 35.6139C126.849 35.4063 127.505 35.1015 127.854 34.9364C128.203 34.7713 129.088 34.3706 129.82 34.0466C131.695 33.2171 132.453 32.8753 133.182 32.5307C134.609 31.856 135.735 31.3525 135.998 31.2703C136.335 31.1662 136.259 30.8634 135.866 30.7415C135.619 30.6648 134.544 30.1873 133.182 29.5496C132.903 29.4187 131.704 28.8769 130.518 28.3447C129.332 27.8124 128.076 27.2411 127.727 27.0747C126.54 26.5095 125.191 25.9033 124.747 25.7348C124.502 25.6423 124.274 25.5314 124.239 25.4889C124.204 25.4457 123.976 25.3327 123.731 25.2368C123.327 25.0786 122.584 24.747 120.719 23.8915C120.352 23.7237 119.753 23.4483 119.387 23.2805C119.021 23.1126 117.693 22.5105 116.438 21.9427C115.182 21.3755 113.926 20.8049 113.647 20.6747C112.531 20.1562 111.392 19.6369 109.334 18.7095C108.148 18.1752 106.892 17.6032 106.543 17.4395C106.194 17.2758 105.367 16.9004 104.704 16.6058C104.041 16.3113 103.142 15.9044 102.707 15.7016C102.272 15.4989 101.531 15.1584 101.059 14.9447C100.587 14.7317 99.9722 14.4501 99.6934 14.3193C98.3892 13.709 97.2213 13.1842 97.1672 13.1842C97.135 13.1842 96.5479 12.9233 95.8636 12.6041C95.1793 12.2848 94.3621 11.9067 94.0483 11.7636C92.5865 11.097 91.892 10.7778 91.1069 10.41C90.6405 10.1915 90.2301 10.0127 90.1945 10.0127C90.1596 10.0127 89.6568 9.79076 89.0766 9.51949C88.4971 9.24824 87.623 8.84408 87.1346 8.62078C86.6462 8.39815 86.0188 8.11113 85.7393 7.98304C85.4605 7.85563 84.2042 7.28434 82.9486 6.71442C81.693 6.1445 80.4367 5.5739 80.1579 5.4458C78.5893 4.72861 77.8707 4.40118 76.6692 3.85934C75.937 3.52849 74.9663 3.08734 74.5128 2.87911C74.0594 2.67087 73.3744 2.36056 72.9908 2.19C72.6072 2.01875 72.0078 1.74269 71.6591 1.57624C70.4008 0.976864 68.1574 -0.00816845 68.0697 5.22613e-05C68.0204 0.00484463 67.8375 0.0719743 67.6628 0.149384" id="path1" fill="#CB547C" fill-rule="evenodd" stroke="none" />
          <path d="M67.6628 62.1802C66.9148 62.5138 65.6496 63.0865 63.0014 64.2907C61.4491 64.9963 58.9085 66.1512 57.3563 66.8567C55.8041 67.5623 54.2484 68.2699 53.8998 68.4302C53.5504 68.5905 52.9229 68.8747 52.5044 69.0631C51.6769 69.4351 47.9464 71.1318 46.9224 71.6017C46.5737 71.762 45.0044 72.4758 43.4343 73.1875C41.8643 73.8999 40.295 74.613 39.9456 74.7733C39.597 74.9336 38.3414 75.5035 37.1549 76.0399C35.9692 76.5762 34.6561 77.1722 34.2375 77.364C33.819 77.5564 33.2765 77.8024 33.0326 77.9113C32.7881 78.0202 31.2187 78.736 29.5439 79.5025C27.8698 80.2683 26.2997 80.9787 26.0559 81.0801C25.8113 81.1821 24.2989 81.8671 22.6939 82.6022C17.6653 84.9072 8.48906 89.0809 6.58408 89.9296C6.23473 90.0851 4.8935 90.6982 3.60296 91.2914C2.31174 91.8846 1.00407 92.4799 0.695137 92.6134C0.0539744 92.8915 0.112889 92.9854 1.19245 93.408C1.50686 93.5306 2.10624 93.7916 2.52477 93.9868C2.94331 94.1828 3.61392 94.4917 4.01533 94.6732C4.41606 94.8547 5.0442 95.1411 5.41067 95.3096C5.77647 95.4781 6.73272 95.911 7.53486 96.272C8.33768 96.633 9.27955 97.0604 9.62822 97.2221C9.97688 97.3838 10.5763 97.6578 10.9599 97.8311C11.3441 98.0044 12.0291 98.3174 12.4826 98.5263C12.9361 98.7353 14.2773 99.3435 15.4637 99.8779C16.6495 100.413 17.9051 100.984 18.2544 101.149C19.5148 101.743 20.6026 102.234 20.6574 102.234C20.6875 102.234 21.2725 102.495 21.9568 102.814C22.6412 103.133 23.4584 103.511 23.7721 103.654C24.8969 104.167 25.8812 104.623 26.8382 105.074C27.3738 105.326 27.8451 105.533 27.8862 105.533C27.928 105.533 28.4034 105.737 28.9432 105.988C29.4829 106.239 30.2241 106.581 30.5906 106.749C30.9571 106.917 31.5564 107.194 31.9222 107.366C32.2887 107.537 33.245 107.97 34.0471 108.329C34.8492 108.688 35.8767 109.153 36.3309 109.363C36.7844 109.573 37.3837 109.847 37.6625 109.974C38.2571 110.244 39.6785 110.893 40.5799 111.306C40.9286 111.466 42.1849 112.032 43.3706 112.565C44.557 113.098 45.8126 113.669 46.1613 113.835C46.9169 114.194 47.6923 114.547 49.65 115.421C50.4522 115.779 51.394 116.207 51.7434 116.371C53.0743 116.995 54.0422 117.428 54.4704 117.591C54.7142 117.683 54.943 117.795 54.9779 117.839C55.0129 117.882 55.2978 118.019 55.6123 118.143C55.926 118.266 56.5541 118.541 57.0076 118.752C57.4611 118.965 58.0604 119.24 58.3392 119.365C58.903 119.616 63.037 121.494 64.0795 121.971C64.446 122.139 65.0447 122.414 65.4112 122.583C67.1737 123.393 67.7436 123.615 67.9484 123.573C68.1834 123.524 68.3101 62.0097 68.0751 62.0309C68.0231 62.035 67.8375 62.1028 67.6628 62.1802" id="path2" fill="#9C4CAC" fill-rule="evenodd" stroke="none" />
          <path d="M135.205 93.2854C134.86 93.4566 134.206 93.7642 133.753 93.969C131.782 94.8588 128.574 96.3158 128.108 96.533C127.829 96.6631 126.202 97.4022 124.492 98.1756C122.783 98.949 121.213 99.6634 121.004 99.7628C120.795 99.8628 118.911 100.718 116.818 101.664C114.725 102.609 112.784 103.491 112.505 103.625C112.226 103.758 111.341 104.162 110.539 104.522C109.737 104.882 108.737 105.335 108.319 105.528C107.9 105.722 107.215 106.035 106.797 106.225C106.378 106.415 105.807 106.674 105.528 106.802C105.249 106.93 104.364 107.329 103.562 107.69C102.759 108.051 101.818 108.477 101.469 108.639C101.12 108.8 100.521 109.074 100.137 109.247C97.7316 110.334 95.0354 111.558 94.4922 111.81C94.1435 111.972 93.5442 112.246 93.1599 112.419C87.7395 114.871 86.4236 115.47 85.9934 115.681C85.7139 115.818 84.5152 116.365 83.3294 116.898C82.143 117.431 80.8018 118.038 80.3483 118.247C79.1249 118.811 78.4646 119.111 76.2253 120.119C75.1094 120.622 73.9675 121.139 73.6887 121.268C70.2233 122.875 68.0889 123.799 67.8409 123.799C67.6744 123.799 66.9915 124.056 66.3243 124.37C65.6564 124.684 65.0838 124.941 65.0516 124.941C65.0187 124.941 64.5508 125.146 64.0124 125.398C63.011 125.865 62.2061 126.236 61.1937 126.694C60.8793 126.835 60.0634 127.212 59.3805 127.531C58.6975 127.849 57.9981 128.145 57.8269 128.188C57.655 128.231 57.5145 128.305 57.5145 128.354C57.5145 128.402 57.3008 128.516 57.0391 128.607C56.7775 128.699 56.1925 128.946 55.739 129.155C55.2855 129.366 54.5718 129.695 54.1532 129.888C53.7347 130.08 53.0209 130.409 52.5675 130.618C52.114 130.827 51.2009 131.24 50.5378 131.535C49.4117 132.038 48.5931 132.411 47.0498 133.126C46.7004 133.288 45.4448 133.859 44.2591 134.396C41.3554 135.71 40.9478 135.894 40.1361 136.265C39.7525 136.44 38.7818 136.88 37.9797 137.243C36.5659 137.881 36.2569 138.022 34.3643 138.894C33.8759 139.119 33.1628 139.445 32.7785 139.619C32.3949 139.793 31.6681 140.129 31.1626 140.366C30.6577 140.603 30.2056 140.797 30.1577 140.797C30.0789 140.797 29.5542 141.037 27.5143 142.008C26.9677 142.268 26.0621 142.677 21.8692 144.56C21.4856 144.732 20.9438 144.978 20.6643 145.108C19.1477 145.81 18.3805 146.159 17.1763 146.698C16.4433 147.025 15.4727 147.463 15.0192 147.672C14.5657 147.88 13.9095 148.182 13.5608 148.342C13.2122 148.502 11.9559 149.07 10.7701 149.605C9.58372 150.139 8.32812 150.71 7.97945 150.873C7.6301 151.037 7.08827 151.287 6.77385 151.43C6.46012 151.571 5.6436 151.949 4.9586 152.268C4.27429 152.587 3.68587 152.848 3.65094 152.848C3.616 152.848 3.17692 153.041 2.6755 153.278C2.17408 153.514 1.34934 153.899 0.843806 154.134C-0.366587 154.695 -0.383713 154.66 1.50963 155.523C2.13777 155.809 2.93717 156.175 3.28583 156.334C3.6345 156.494 4.8901 157.064 6.07652 157.601C7.26226 158.138 8.51855 158.71 8.86721 158.872C9.54536 159.186 10.1262 159.45 12.2285 160.397C12.9615 160.727 13.9033 161.157 14.3219 161.351C14.7404 161.546 15.4254 161.859 15.8439 162.049C17.5393 162.816 17.914 162.988 18.849 163.427C19.3854 163.678 19.8526 163.884 19.8882 163.884C19.9457 163.884 21.3691 164.523 22.6939 165.145C23.9797 165.747 24.9517 166.192 26.1826 166.742C27.6307 167.389 28.4938 167.78 29.6707 168.324C30.5098 168.711 30.842 168.863 33.9841 170.289C35.1698 170.827 36.4254 171.4 36.7748 171.56C37.1235 171.721 38.3791 172.291 39.5655 172.826C42.5815 174.189 43.0316 174.393 43.7515 174.733C44.4441 175.059 45.0886 175.35 47.1128 176.251C48.4355 176.839 49.511 177.33 50.7282 177.901C52.3441 178.66 53.3312 179.106 53.3922 179.106C53.4285 179.106 53.8717 179.3 54.3766 179.537C54.8821 179.774 55.6232 180.117 56.0247 180.298C56.9604 180.722 58.0132 181.204 58.9736 181.647C59.3921 181.84 60.334 182.268 61.0669 182.596C62.639 183.303 63.3747 183.636 64.4919 184.151C68.3704 185.941 68.1142 185.886 69.439 185.191C70.0295 184.881 72.0913 183.927 72.1701 183.927C72.2044 183.927 72.6743 183.72 73.2141 183.466C73.7538 183.214 74.4244 182.905 74.7032 182.781C74.982 182.658 75.5814 182.385 76.0349 182.176C76.489 181.966 77.5165 181.5 78.3187 181.138C79.1208 180.777 80.0058 180.376 80.2846 180.248C81.3423 179.763 82.5102 179.232 84.5974 178.286C85.7838 177.748 87.0394 177.177 87.3887 177.016C89.0355 176.255 89.8184 175.898 91.7015 175.052C93.6455 174.177 94.2497 173.902 95.7286 173.216C98.0179 172.155 98.6015 171.894 99.0269 171.741C99.2886 171.648 99.503 171.532 99.503 171.484C99.503 171.435 99.6598 171.356 99.8509 171.308C100.043 171.26 100.628 171.019 101.151 170.773C101.675 170.526 102.446 170.167 102.864 169.975C103.283 169.783 104.008 169.447 104.474 169.229C104.941 169.01 105.351 168.831 105.386 168.831C105.441 168.831 107.093 168.079 108.319 167.496C108.529 167.397 109.727 166.852 110.983 166.286C112.238 165.719 113.552 165.125 113.9 164.965C114.25 164.805 114.935 164.491 115.422 164.268C115.911 164.045 116.539 163.758 116.818 163.629C117.097 163.502 117.982 163.102 118.784 162.741C119.586 162.381 120.528 161.954 120.877 161.793C122.749 160.93 123.787 160.457 125.761 159.57C126.563 159.209 127.534 158.769 127.917 158.593C128.607 158.275 129.222 157.995 130.581 157.378C130.965 157.204 131.779 156.827 132.392 156.54C133.004 156.254 133.535 156.019 133.573 156.019C133.641 156.019 135.682 155.085 136.036 154.891C136.359 154.713 136.385 92.9737 136.062 92.9737C135.936 92.9737 135.551 93.1142 135.205 93.2854" id="path3" fill="#2C346C" fill-rule="evenodd" stroke="none" />
        </g>
      </g>
    </g>
  </g>
</svg>