<?xml version="1.0" encoding="utf-8"?>
<svg width="1180px" height="516px" viewBox="0 0 1180 516" version="1.1" xmlns:xlink="http://www.w3.org/1999/xlink" xmlns="http://www.w3.org/2000/svg">
  <defs>
    <path d="M413 697L687 697L687 971L413 971L413 697Z" id="path_1" />
    <clipPath id="mask_1">
      <use xlink:href="#path_1" />
    </clipPath>
  </defs>
  <path d="M9.99899 0L1170 0Q1170.25 0 1170.49 0.0120443Q1170.74 0.0240885 1170.98 0.048148Q1171.23 0.0722075 1171.47 0.108224Q1171.71 0.144241 1171.95 0.192128Q1172.19 0.240016 1172.43 0.299658Q1172.67 0.359301 1172.9 0.430555Q1173.14 0.501808 1173.37 0.584502Q1173.6 0.667196 1173.83 0.76113Q1174.05 0.855065 1174.28 0.960013Q1174.5 1.06496 1174.71 1.18067Q1174.93 1.29638 1175.14 1.42257Q1175.35 1.54877 1175.56 1.68514Q1175.76 1.82151 1175.96 1.96773Q1176.15 2.11395 1176.34 2.26967Q1176.53 2.42539 1176.72 2.59024Q1176.9 2.75508 1177.07 2.92865Q1177.24 3.10221 1177.41 3.28409Q1177.57 3.46597 1177.73 3.65571Q1177.89 3.84545 1178.03 4.04261Q1178.18 4.23977 1178.31 4.44386Q1178.45 4.64796 1178.58 4.8585Q1178.7 5.06904 1178.82 5.28552Q1178.93 5.50199 1179.04 5.72389Q1179.14 5.94578 1179.24 6.17256Q1179.33 6.39934 1179.42 6.63045Q1179.5 6.86157 1179.57 7.09646Q1179.64 7.33135 1179.7 7.56946Q1179.76 7.80756 1179.81 8.04831Q1179.86 8.28905 1179.89 8.53186Q1179.93 8.77467 1179.95 9.01895Q1179.98 9.26323 1179.99 9.50839Q1180 9.75356 1180 9.99902L1180 506.001Q1180 506.246 1179.99 506.492Q1179.98 506.737 1179.95 506.981Q1179.93 507.225 1179.89 507.468Q1179.86 507.711 1179.81 507.952Q1179.76 508.192 1179.7 508.431Q1179.64 508.669 1179.57 508.904Q1179.5 509.138 1179.42 509.37Q1179.33 509.601 1179.24 509.827Q1179.14 510.054 1179.04 510.276Q1178.93 510.498 1178.82 510.714Q1178.7 510.931 1178.58 511.141Q1178.45 511.352 1178.31 511.556Q1178.18 511.76 1178.03 511.957Q1177.89 512.155 1177.73 512.344Q1177.57 512.534 1177.41 512.716Q1177.24 512.898 1177.07 513.071Q1176.9 513.245 1176.72 513.41Q1176.53 513.575 1176.34 513.73Q1176.15 513.886 1175.96 514.032Q1175.76 514.178 1175.56 514.315Q1175.35 514.451 1175.14 514.577Q1174.93 514.704 1174.71 514.819Q1174.5 514.935 1174.28 515.04Q1174.05 515.145 1173.83 515.239Q1173.6 515.333 1173.37 515.415Q1173.14 515.498 1172.9 515.569Q1172.67 515.641 1172.43 515.7Q1172.19 515.76 1171.95 515.808Q1171.71 515.856 1171.47 515.892Q1171.23 515.928 1170.98 515.952Q1170.74 515.976 1170.49 515.988Q1170.25 516 1170 516L9.99899 516Q9.75353 516 9.50837 515.988Q9.2632 515.976 9.01892 515.952Q8.77464 515.928 8.53184 515.892Q8.28903 515.856 8.04829 515.808Q7.80754 515.76 7.56943 515.7Q7.33133 515.641 7.09644 515.569Q6.86155 515.498 6.63043 515.415Q6.39932 515.333 6.17254 515.239Q5.94577 515.145 5.72387 515.04Q5.50198 514.935 5.2855 514.819Q5.06902 514.704 4.85848 514.577Q4.64794 514.451 4.44385 514.315Q4.23976 514.178 4.0426 514.032Q3.84544 513.886 3.6557 513.73Q3.46595 513.575 3.28408 513.41Q3.1022 513.245 2.92864 513.071Q2.75507 512.898 2.59023 512.716Q2.42539 512.534 2.26967 512.344Q2.11395 512.154 1.96773 511.957Q1.82151 511.76 1.68513 511.556Q1.54876 511.352 1.42257 511.141Q1.29638 510.931 1.18067 510.714Q1.06496 510.498 0.96001 510.276Q0.855062 510.054 0.761128 509.827Q0.667194 509.601 0.5845 509.37Q0.501807 509.138 0.430553 508.904Q0.3593 508.669 0.299657 508.43Q0.240015 508.192 0.192128 507.952Q0.144241 507.711 0.108224 507.468Q0.0722073 507.225 0.0481479 506.981Q0.0240884 506.737 0.0120442 506.492Q0 506.246 0 506.001L0 9.99902Q0 9.75356 0.0120442 9.50839Q0.0240884 9.26323 0.0481479 9.01895Q0.0722073 8.77467 0.108224 8.53186Q0.144241 8.28905 0.192128 8.04831Q0.240015 7.80756 0.299657 7.56946Q0.3593 7.33135 0.430553 7.09646Q0.501807 6.86157 0.5845 6.63045Q0.667194 6.39934 0.761128 6.17256Q0.855062 5.94578 0.96001 5.72389Q1.06496 5.50199 1.18067 5.28552Q1.29638 5.06904 1.42257 4.8585Q1.54876 4.64796 1.68513 4.44386Q1.82151 4.23977 1.96773 4.04261Q2.11395 3.84545 2.26967 3.65571Q2.42539 3.46597 2.59023 3.28409Q2.75507 3.10221 2.92864 2.92865Q3.1022 2.75508 3.28408 2.59024Q3.46595 2.42539 3.6557 2.26967Q3.84544 2.11395 4.0426 1.96773Q4.23976 1.82151 4.44385 1.68514Q4.64794 1.54877 4.85848 1.42257Q5.06902 1.29638 5.2855 1.18067Q5.50198 1.06496 5.72387 0.960013Q5.94577 0.855065 6.17254 0.76113Q6.39932 0.667196 6.63043 0.584502Q6.86155 0.501808 7.09644 0.430555Q7.33133 0.359301 7.56944 0.299658Q7.80754 0.240016 8.04829 0.192128Q8.28903 0.144241 8.53184 0.108224Q8.77464 0.0722075 9.01892 0.048148Q9.2632 0.0240885 9.50837 0.0120443Q9.75353 0 9.99899 0Z" id="Rectangle-2" fill="#F2CCD5" fill-opacity="0.23137255" fill-rule="evenodd" stroke="none" />
  <g id="@sernhandler" fill="#261340" transform="translate(288.99997 193.09991)">
    <path d="M293.76 109.1L327.36 18.86L339.84 18.86L306.24 109.1L293.76 109.1ZM31.2 115.724Q22.56 115.724 16.32 112.364Q10.08 109.004 6.624 102.764Q3.168 96.524 3.168 87.884L3.168 55.34Q3.168 46.7 6.432 40.46Q9.696 34.22 15.744 30.86Q21.792 27.5 30.24 27.5Q37.92 27.5 43.44 30.428Q48.96 33.356 51.936 38.588Q54.912 43.82 54.912 50.732L54.912 92.3L45.792 92.3L46.368 87.02L44.5874 87.02Q43.9459 89.213 42.096 90.812Q39.264 93.26 34.56 93.26Q28.512 93.26 25.2 89.228Q21.888 85.196 21.888 77.804L21.888 66.86Q21.888 59.468 25.2 55.436Q28.512 51.404 34.56 51.404Q39.264 51.404 42.096 53.804Q44.2008 55.5878 44.7413 58.22L46.464 58.22L44.928 51.692L44.928 50.732Q44.928 46.412 43.2 43.148Q41.472 39.884 38.208 38.012Q34.944 36.14 30.24 36.14Q22.08 36.14 17.616 41.18Q13.152 46.22 13.152 55.34L13.152 87.884Q13.152 96.812 17.904 101.708Q22.656 106.604 31.2 106.604L37.92 106.604L37.92 115.724L31.2 115.724ZM352.992 28.46L352.992 98.54L364.992 98.54L364.992 65.516Q364.992 60.524 367.536 57.836Q370.08 55.148 374.496 55.148Q379.008 55.148 381.504 57.74Q384 60.332 384 65.132L384 98.54L396 98.54L396 63.884Q396 55.148 391.344 49.964Q386.688 44.78 378.912 44.78Q372.288 44.78 368.496 48.428Q365.555 51.2576 364.895 55.82L364.704 55.82L364.992 45.74L364.992 28.46L352.992 28.46ZM542.688 99.5Q534.816 99.5 529.968 94.028Q525.12 88.556 525.12 79.34L525.12 65.036Q525.12 55.724 529.92 50.252Q534.72 44.78 542.688 44.78Q549.216 44.78 553.056 48.476Q556.023 51.3315 556.697 55.82L556.992 55.82L556.608 43.244L556.608 28.46L568.608 28.46L568.608 98.54L556.896 98.54L556.896 88.46L556.697 88.46Q556.023 92.9485 553.056 95.804Q549.216 99.5 542.688 99.5ZM603.792 96.428C606.384 97.836 609.408 98.54 612.864 98.54L629.664 98.54L629.664 87.692L613.728 87.692Q610.848 87.692 609.168 86.012Q607.488 84.332 607.488 81.452L607.488 28.46L578.592 28.46L578.592 39.308L595.488 39.308L595.488 81.452Q595.488 86.54 597.696 90.428Q599.904 94.316 603.792 96.428ZM132.384 96.908Q137.376 99.5 144.096 99.5Q152.544 99.5 158.448 95.42Q164.352 91.34 165.696 84.524L153.888 84.524Q153.216 87.212 150.72 88.604Q148.224 89.996 144.192 89.996Q138.912 89.996 136.224 87.164Q133.536 84.332 133.536 78.764L133.536 75.02L166.08 75.02L166.08 65.516Q166.08 59.276 163.344 54.62Q160.608 49.964 155.664 47.372Q150.72 44.78 144.096 44.78Q137.376 44.78 132.384 47.372Q127.392 49.964 124.656 54.62Q121.92 59.276 121.92 65.516L121.92 78.764Q121.92 85.004 124.656 89.66Q127.392 94.316 132.384 96.908ZM181.824 98.54L181.824 45.74L193.152 45.74L193.152 55.82L193.187 55.82Q194.108 51.6968 196.416 49.1Q200.256 44.78 207.744 44.78Q216.288 44.78 221.184 50.06Q226.08 55.34 226.08 64.652L226.08 68.492L213.504 68.492L213.504 65.516Q213.504 60.428 210.864 57.644Q208.224 54.86 203.616 54.86Q198.912 54.86 196.368 57.644Q193.824 60.428 193.824 65.516L193.824 98.54L181.824 98.54ZM237.792 45.74L237.792 98.54L249.792 98.54L249.792 65.516Q249.792 60.524 252.336 57.836Q254.88 55.148 259.296 55.148Q263.808 55.148 266.304 57.74Q268.8 60.332 268.8 65.132L268.8 98.54L280.8 98.54L280.8 63.884Q280.8 55.148 276.144 49.964Q271.488 44.78 263.712 44.78Q257.088 44.78 253.296 48.428Q250.355 51.2576 249.695 55.82L249.504 55.82L249.504 45.74L237.792 45.74ZM426.144 99.5Q417.984 99.5 413.28 95.18Q408.576 90.86 408.576 83.564Q408.576 75.788 413.76 71.564Q418.944 67.34 428.448 67.34L441.6 67.34L441.6 62.828Q441.6 58.988 439.104 56.828Q436.608 54.668 432.288 54.668Q428.352 54.668 425.76 56.396Q423.168 58.124 422.688 61.1L410.976 61.1Q411.84 53.612 417.696 49.196Q423.552 44.78 432.672 44.78Q442.368 44.78 447.984 49.628Q453.6 54.476 453.6 62.732L453.6 98.54L441.984 98.54L441.984 89.324L441.751 89.324Q440.98 93.3911 437.664 96.044Q433.344 99.5 426.144 99.5ZM468.192 45.74L468.192 98.54L480.192 98.54L480.192 65.516Q480.192 60.524 482.736 57.836Q485.28 55.148 489.696 55.148Q494.208 55.148 496.704 57.74Q499.2 60.332 499.2 65.132L499.2 98.54L511.2 98.54L511.2 63.884Q511.2 55.148 506.544 49.964Q501.888 44.78 494.112 44.78Q487.488 44.78 483.696 48.428Q480.755 51.2576 480.095 55.82L479.904 55.82L479.904 45.74L468.192 45.74ZM662.496 99.5Q655.776 99.5 650.784 96.908Q645.792 94.316 643.056 89.66Q640.32 85.004 640.32 78.764L640.32 65.516Q640.32 59.276 643.056 54.62Q645.792 49.964 650.784 47.372Q655.776 44.78 662.496 44.78Q669.12 44.78 674.064 47.372Q679.008 49.964 681.744 54.62Q684.48 59.276 684.48 65.516L684.48 75.02L651.936 75.02L651.936 78.764Q651.936 84.332 654.624 87.164Q657.312 89.996 662.592 89.996Q666.624 89.996 669.12 88.604Q671.616 87.212 672.288 84.524L684.096 84.524Q682.752 91.34 676.848 95.42Q670.944 99.5 662.496 99.5ZM700.224 45.74L700.224 98.54L712.224 98.54L712.224 65.516Q712.224 60.428 714.768 57.644Q717.312 54.86 722.016 54.86Q726.624 54.86 729.264 57.644Q731.904 60.428 731.904 65.516L731.904 68.492L744.48 68.492L744.48 64.652Q744.48 55.34 739.584 50.06Q734.688 44.78 726.144 44.78Q718.656 44.78 714.816 49.1Q712.508 51.6968 711.587 55.82L711.552 55.82L711.552 45.74L700.224 45.74ZM84.384 99.404Q78.336 99.404 73.824 97.484Q69.312 95.564 66.768 92.156Q64.224 88.748 64.032 84.14L76.032 84.14Q76.224 86.636 78.48 88.172Q80.736 89.708 84.384 89.708L88.608 89.708Q93.024 89.708 95.232 87.98Q97.44 86.252 97.44 83.276Q97.44 80.492 95.472 78.908Q93.504 77.324 89.376 76.844L82.848 75.884Q73.824 74.636 69.6 71.084Q65.376 67.532 65.376 60.428Q65.376 53.036 70.368 48.956Q75.36 44.876 85.056 44.876L88.704 44.876Q97.536 44.876 102.816 48.812Q108.096 52.748 108.48 59.372L96.48 59.372Q96.192 57.26 94.128 55.916Q92.064 54.572 88.704 54.572L85.056 54.572Q80.928 54.572 79.056 56.06Q77.184 57.548 77.184 60.428Q77.184 63.116 78.816 64.412Q80.448 65.708 84.096 66.284L90.912 67.244Q100.32 68.588 104.784 72.284Q109.248 75.98 109.248 83.18Q109.248 90.86 104.016 95.132Q98.784 99.404 88.608 99.404L84.384 99.404ZM154.464 67.3476L154.464 65.42Q154.464 59.948 151.872 57.02Q149.28 54.092 144.096 54.092Q138.912 54.092 136.224 57.068Q133.536 60.044 133.536 65.516L133.536 67.532L154.464 67.3476ZM672.864 65.42L672.864 67.3476L651.936 67.532L651.936 65.516Q651.936 60.044 654.624 57.068Q657.312 54.092 662.496 54.092Q667.68 54.092 670.272 57.02Q672.864 59.948 672.864 65.42ZM546.912 89.132Q551.52 89.132 554.064 86.396Q556.608 83.66 556.608 78.764L556.608 65.516Q556.608 60.62 554.064 57.884Q551.52 55.148 546.912 55.148Q542.304 55.148 539.712 57.836Q537.12 60.524 537.12 65.516L537.12 78.764Q537.12 83.756 539.712 86.444Q542.304 89.132 546.912 89.132ZM38.4 85.964Q41.856 85.964 43.392 83.948Q44.928 81.932 44.928 77.42L44.928 66.86Q44.928 62.828 43.296 60.764Q41.664 58.7 38.4 58.7Q35.136 58.7 33.504 60.764Q31.872 62.828 31.872 66.86L31.872 77.804Q31.872 82.124 33.504 84.044Q35.136 85.964 38.4 85.964ZM430.08 90.476Q435.168 90.476 438.384 87.884Q441.6 85.292 441.6 81.164L441.6 74.732L428.64 74.732Q424.992 74.732 422.784 76.844Q420.576 78.956 420.576 82.412Q420.576 86.156 423.12 88.316Q425.664 90.476 430.08 90.476Z" />
  </g>
  <g id="image2vector" transform="translate(15 121.99988)">
    <path d="M413 697L687 697L687 971L413 971L413 697Z" id="Background" fill="#FFFFFF" fill-opacity="0" fill-rule="evenodd" stroke="none" />
    <g clip-path="url(#mask_1)">
      <g id="svgg" transform="translate(68.8296 44.153015)">
        <path d="M481.255 759.106C481.124 759.238 481.153 820.672 481.284 820.672C481.377 820.672 484.467 819.288 486.942 818.138C487.221 818.008 488.791 817.294 490.431 816.552C492.07 815.808 493.583 815.121 493.792 815.023C494.001 814.924 495.571 814.213 497.281 813.441C498.99 812.67 500.56 811.957 500.769 811.858C501.183 811.661 506.841 809.083 507.872 808.621C508.882 808.169 514.291 805.714 514.85 805.455C515.129 805.325 516.327 804.783 517.514 804.249C518.699 803.716 519.955 803.146 520.304 802.983C520.988 802.661 521.226 802.552 524.49 801.076C525.676 800.539 526.875 799.996 527.154 799.868C527.433 799.74 529.06 798.999 530.769 798.22C532.479 797.442 534.106 796.7 534.385 796.571C534.664 796.441 536.177 795.754 537.747 795.043C539.316 794.332 540.886 793.619 541.235 793.458C541.583 793.298 542.84 792.727 544.025 792.191C549.355 789.781 549.341 789.789 549.005 789.622C548.848 789.544 547.748 789.048 546.563 788.517C545.376 787.988 544.12 787.419 543.772 787.252C543.017 786.893 542.241 786.54 540.283 785.666C539.481 785.308 538.539 784.881 538.19 784.716C536.021 783.695 535.618 783.516 535.304 783.437C535.112 783.389 534.956 783.311 534.956 783.262C534.956 783.214 534.741 783.099 534.48 783.007C534.218 782.915 533.604 782.654 533.116 782.426C532.628 782.199 531.9 781.863 531.499 781.68C531.098 781.497 530.47 781.21 530.103 781.042C529.737 780.873 528.781 780.439 527.979 780.077C526.313 779.324 525.472 778.942 524.3 778.403C523.847 778.194 523.19 777.892 522.841 777.731C522.492 777.571 521.237 777.002 520.05 776.466C517.989 775.536 517.507 775.317 515.928 774.589C515.544 774.411 514.574 773.971 513.772 773.61C512.969 773.249 512.027 772.82 511.678 772.656C509.835 771.794 509.057 771.453 508.766 771.38C508.589 771.336 508.444 771.26 508.444 771.212C508.444 771.164 508.229 771.047 507.968 770.953C507.706 770.86 507.064 770.585 506.541 770.343C506.017 770.1 505.276 769.761 504.892 769.587C503.826 769.106 503.032 768.74 501.813 768.169C501.201 767.882 500.674 767.648 500.642 767.648C500.61 767.648 500.083 767.413 499.472 767.127C497.692 766.293 496.406 765.707 494.363 764.797C493.631 764.47 492.746 764.07 492.397 763.909C489.964 762.783 484.908 760.482 483.708 759.956C483.324 759.788 482.738 759.508 482.407 759.336C481.807 759.023 481.416 758.945 481.255 759.106" id="path0" fill="#643C84" fill-rule="evenodd" stroke="none" />
        <path d="M480.663 697.149C480.489 697.226 479.946 697.473 479.458 697.696C478.97 697.919 478.256 698.246 477.872 698.421C477.489 698.597 476.204 699.178 475.018 699.712C473.832 700.246 472.576 700.817 472.227 700.981C471.878 701.144 471.222 701.447 470.769 701.655C470.315 701.862 469.562 702.211 469.096 702.429C468.629 702.648 468.218 702.827 468.184 702.827C468.126 702.827 466.935 703.365 465.25 704.152C463.826 704.818 462.906 705.238 461.762 705.744C460.472 706.315 459.544 706.734 458.527 707.204C458.178 707.366 456.923 707.938 455.736 708.476C453.755 709.374 452.781 709.817 451.424 710.438C451.145 710.565 449.889 711.136 448.633 711.707C447.377 712.278 446.064 712.876 445.716 713.037C445.366 713.197 444.824 713.443 444.51 713.583C444.196 713.722 443.568 714.009 443.115 714.218C442.661 714.428 441.634 714.893 440.831 715.252C440.029 715.611 439.073 716.044 438.707 716.216C438.341 716.387 437.741 716.664 437.375 716.831C437.008 717 436.267 717.342 435.728 717.593C435.188 717.844 434.716 718.049 434.679 718.049C434.642 718.049 434.199 718.243 433.694 718.48C433.19 718.717 432.434 719.066 432.016 719.256C431.597 719.445 430.969 719.732 430.62 719.891C430.271 720.051 428.958 720.646 427.702 721.214C426.446 721.782 425.191 722.353 424.911 722.483C424.48 722.684 422.008 723.807 419.394 724.989C419.01 725.163 418.411 725.438 418.061 725.601C417.265 725.973 415.604 726.73 414.162 727.38L413.053 727.88L413.052 758.8C413.051 780.329 413.092 789.72 413.184 789.72C413.304 789.72 416.789 788.174 418.061 787.556C419.411 786.9 423.408 785.125 423.548 785.118C423.635 785.114 423.706 785.064 423.706 785.005C423.706 784.947 423.765 784.9 423.837 784.9C423.909 784.9 424.38 784.707 424.883 784.472C426.096 783.907 426.783 783.592 429.352 782.423C430.537 781.883 431.85 781.285 432.269 781.094C433.397 780.58 434.028 780.296 435.504 779.636C436.809 779.054 437.981 778.521 438.992 778.049C439.406 777.855 442.602 776.4 446.096 774.815C446.445 774.656 447.101 774.357 447.555 774.15C448.008 773.943 448.921 773.53 449.584 773.233C450.247 772.936 451.205 772.499 451.714 772.264C452.222 772.027 452.659 771.834 452.685 771.834C452.711 771.834 453.322 771.555 454.044 771.215C454.766 770.875 455.841 770.382 456.434 770.121C457.028 769.859 457.912 769.46 458.4 769.233C461.777 767.664 464.927 766.259 465.251 766.177C465.425 766.134 465.568 766.051 465.568 765.994C465.568 765.936 465.696 765.849 465.853 765.801C466.01 765.753 466.481 765.556 466.9 765.363C469.299 764.257 472.183 762.955 472.232 762.955C472.263 762.955 472.818 762.703 473.463 762.396C474.109 762.089 475.294 761.541 476.097 761.179C476.899 760.817 477.784 760.417 478.063 760.289C480.508 759.173 481.162 758.895 481.347 758.895C481.542 758.895 483.217 758.185 484.786 757.437C485.135 757.271 485.734 756.995 486.117 756.824C486.501 756.653 487.186 756.342 487.64 756.134C488.093 755.926 489.064 755.485 489.797 755.154C490.997 754.612 491.717 754.285 493.285 753.567C493.564 753.44 494.82 752.869 496.075 752.299C497.332 751.729 498.587 751.158 498.866 751.03C500.474 750.294 501.155 749.985 502.355 749.444C503.764 748.81 504.443 748.501 505.78 747.888C506.233 747.68 506.861 747.393 507.175 747.25C507.489 747.107 508.306 746.728 508.99 746.41C509.675 746.091 510.262 745.83 510.294 745.83C510.348 745.83 511.516 745.304 512.82 744.694C513.505 744.373 514.705 743.826 516.308 743.103C518.506 742.113 519.006 741.885 519.67 741.574C520.019 741.41 521.274 740.839 522.461 740.304C524.519 739.376 525.658 738.858 526.774 738.338C527.052 738.209 528.309 737.638 529.564 737.07C530.82 736.503 532.147 735.901 532.514 735.733C532.88 735.565 533.508 735.279 533.909 735.097C534.31 734.915 535.052 734.573 535.557 734.336C536.062 734.099 536.505 733.905 536.541 733.905C536.578 733.905 537.049 733.7 537.589 733.448C538.129 733.198 538.942 732.821 539.395 732.614C539.849 732.406 540.505 732.102 540.854 731.936C541.203 731.771 542.088 731.371 542.82 731.047C544.695 730.217 545.453 729.875 546.182 729.531C547.609 728.856 548.735 728.352 548.998 728.27C549.335 728.166 549.259 727.863 548.866 727.741C548.619 727.665 547.544 727.187 546.182 726.55C545.903 726.419 544.704 725.877 543.518 725.345C542.332 724.812 541.076 724.241 540.727 724.075C539.54 723.51 538.191 722.903 537.747 722.735C537.502 722.642 537.274 722.531 537.239 722.489C537.204 722.446 536.976 722.333 536.731 722.237C536.327 722.079 535.584 721.747 533.719 720.891C533.352 720.724 532.753 720.448 532.387 720.28C532.021 720.113 530.693 719.51 529.438 718.943C528.182 718.375 526.926 717.805 526.647 717.675C525.531 717.156 524.392 716.637 522.334 715.709C521.148 715.175 519.892 714.603 519.543 714.439C519.194 714.276 518.367 713.9 517.703 713.606C517.041 713.311 516.142 712.904 515.707 712.702C515.272 712.499 514.531 712.158 514.059 711.945C513.587 711.732 512.972 711.45 512.693 711.319C511.389 710.709 510.221 710.184 510.167 710.184C510.135 710.184 509.548 709.923 508.864 709.604C508.179 709.285 507.362 708.907 507.048 708.764C505.587 708.097 504.892 707.778 504.107 707.41C503.64 707.191 503.23 707.013 503.195 707.013C503.16 707.013 502.657 706.791 502.077 706.519C501.497 706.248 500.623 705.844 500.135 705.621C499.646 705.398 499.019 705.111 498.739 704.983C498.461 704.856 497.204 704.284 495.949 703.714C494.693 703.145 493.437 702.574 493.158 702.446C491.589 701.729 490.871 701.401 489.669 700.859C488.937 700.529 487.966 700.087 487.513 699.879C487.059 699.671 486.374 699.361 485.991 699.19C485.607 699.019 485.008 698.743 484.659 698.576C483.401 697.977 481.157 696.992 481.07 697C481.02 697.005 480.838 697.072 480.663 697.149" id="path1" fill="#CB547C" fill-rule="evenodd" stroke="none" />
        <path d="M480.663 759.18C479.915 759.514 478.65 760.086 476.001 761.291C474.449 761.996 471.908 763.151 470.356 763.857C468.804 764.562 467.248 765.27 466.9 765.43C466.55 765.59 465.923 765.875 465.504 766.063C464.677 766.435 460.946 768.132 459.922 768.602C459.574 768.762 458.004 769.476 456.434 770.188C454.864 770.9 453.295 771.613 452.946 771.773C452.597 771.934 451.341 772.503 450.155 773.04C448.969 773.576 447.656 774.172 447.238 774.364C446.819 774.556 446.276 774.802 446.033 774.911C445.788 775.02 444.219 775.736 442.544 776.503C440.87 777.268 439.3 777.979 439.056 778.08C438.811 778.182 437.299 778.867 435.694 779.602C430.665 781.907 421.489 786.081 419.584 786.93C419.235 787.085 417.893 787.698 416.603 788.291C415.312 788.885 414.004 789.48 413.695 789.613C413.054 789.892 413.113 789.985 414.192 790.408C414.507 790.531 415.106 790.792 415.525 790.987C415.943 791.183 416.614 791.492 417.015 791.673C417.416 791.855 418.044 792.141 418.411 792.31C418.776 792.478 419.733 792.911 420.535 793.272C421.338 793.633 422.28 794.06 422.628 794.222C422.977 794.384 423.576 794.658 423.96 794.831C424.344 795.004 425.029 795.317 425.483 795.526C425.936 795.735 427.277 796.344 428.464 796.878C429.649 797.413 430.905 797.984 431.254 798.149C432.515 798.743 433.603 799.234 433.657 799.234C433.688 799.234 434.273 799.495 434.957 799.814C435.641 800.133 436.458 800.511 436.772 800.654C437.897 801.167 438.881 801.623 439.838 802.074C440.374 802.326 440.845 802.533 440.886 802.533C440.928 802.533 441.403 802.737 441.943 802.988C442.483 803.239 443.224 803.581 443.591 803.749C443.957 803.917 444.556 804.194 444.922 804.366C445.289 804.537 446.245 804.97 447.047 805.329C447.849 805.688 448.877 806.153 449.331 806.363C449.784 806.573 450.384 806.847 450.663 806.974C451.257 807.244 452.678 807.893 453.58 808.306C453.929 808.466 455.185 809.032 456.371 809.565C457.557 810.098 458.813 810.669 459.161 810.835C459.917 811.194 460.692 811.547 462.65 812.421C463.452 812.779 464.394 813.207 464.743 813.371C466.074 813.995 467.042 814.428 467.47 814.591C467.714 814.683 467.943 814.795 467.978 814.839C468.013 814.882 468.298 815.019 468.612 815.143C468.926 815.266 469.554 815.541 470.008 815.752C470.461 815.965 471.06 816.24 471.339 816.365C471.903 816.616 476.037 818.494 477.08 818.971C477.446 819.139 478.045 819.414 478.411 819.583C480.174 820.393 480.744 820.615 480.948 820.573C481.183 820.524 481.31 759.01 481.075 759.031C481.023 759.035 480.837 759.103 480.663 759.18" id="path2" fill="#9C4CAC" fill-rule="evenodd" stroke="none" />
        <path d="M548.205 790.285C547.86 790.457 547.206 790.764 546.753 790.969C544.782 791.859 541.574 793.316 541.108 793.533C540.829 793.663 539.202 794.402 537.492 795.176C535.783 795.949 534.213 796.663 534.004 796.763C533.795 796.863 531.911 797.718 529.818 798.664C527.725 799.609 525.784 800.491 525.505 800.625C525.226 800.758 524.341 801.162 523.539 801.522C522.737 801.882 521.737 802.335 521.319 802.528C520.9 802.722 520.215 803.035 519.797 803.225C519.378 803.415 518.807 803.674 518.528 803.802C518.249 803.93 517.364 804.329 516.562 804.69C515.759 805.051 514.818 805.477 514.469 805.639C514.12 805.8 513.521 806.074 513.137 806.247C510.732 807.334 508.035 808.558 507.492 808.81C507.144 808.971 506.544 809.245 506.16 809.419C500.739 811.871 499.424 812.47 498.993 812.681C498.714 812.818 497.515 813.365 496.329 813.898C495.143 814.431 493.802 815.038 493.348 815.247C492.125 815.811 491.465 816.111 489.225 817.119C488.109 817.622 486.968 818.139 486.689 818.268C483.223 819.875 481.089 820.799 480.841 820.799C480.674 820.799 479.992 821.056 479.324 821.37C478.656 821.684 478.084 821.941 478.052 821.941C478.019 821.941 477.551 822.146 477.012 822.398C476.011 822.865 475.206 823.236 474.194 823.694C473.879 823.835 473.063 824.212 472.38 824.531C471.698 824.849 470.998 825.145 470.827 825.188C470.655 825.231 470.515 825.305 470.515 825.354C470.515 825.402 470.301 825.516 470.039 825.607C469.777 825.699 469.193 825.946 468.739 826.155C468.286 826.366 467.572 826.695 467.153 826.888C466.735 827.08 466.021 827.409 465.567 827.618C465.114 827.827 464.201 828.24 463.538 828.535C462.412 829.038 461.593 829.411 460.05 830.126C459.7 830.288 458.445 830.859 457.259 831.396C454.355 832.71 453.948 832.894 453.136 833.265C452.753 833.44 451.782 833.88 450.98 834.243C449.566 834.881 449.257 835.022 447.364 835.894C446.876 836.119 446.163 836.445 445.779 836.62C445.395 836.793 444.668 837.129 444.163 837.366C443.658 837.603 443.206 837.797 443.158 837.797C443.079 837.797 442.554 838.037 440.514 839.008C439.968 839.268 439.062 839.677 434.869 841.56C434.486 841.732 433.944 841.978 433.664 842.108C432.148 842.81 431.38 843.159 430.176 843.698C429.443 844.025 428.473 844.463 428.019 844.672C427.566 844.88 426.909 845.182 426.561 845.342C426.212 845.502 424.956 846.07 423.77 846.605C422.584 847.139 421.328 847.71 420.979 847.873C420.63 848.037 420.088 848.287 419.774 848.43C419.46 848.571 418.644 848.949 417.959 849.268C417.274 849.587 416.686 849.848 416.651 849.848C416.616 849.848 416.177 850.041 415.676 850.278C415.174 850.514 414.349 850.899 413.844 851.134C412.633 851.695 412.616 851.66 414.51 852.523C415.138 852.809 415.937 853.175 416.286 853.334C416.634 853.494 417.89 854.064 419.077 854.601C420.262 855.138 421.519 855.71 421.867 855.872C422.545 856.186 423.126 856.45 425.229 857.397C425.961 857.727 426.903 858.157 427.322 858.351C427.74 858.546 428.425 858.859 428.844 859.049C430.539 859.816 430.914 859.988 431.849 860.427C432.385 860.678 432.853 860.884 432.888 860.884C432.946 860.884 434.369 861.523 435.694 862.145C436.98 862.747 437.952 863.192 439.183 863.742C440.631 864.389 441.494 864.781 442.671 865.324C443.51 865.711 443.842 865.863 446.984 867.289C448.17 867.827 449.425 868.4 449.775 868.56C450.123 868.721 451.379 869.291 452.565 869.826C455.582 871.189 456.032 871.393 456.752 871.733C457.444 872.059 458.089 872.35 460.113 873.25C461.436 873.839 462.511 874.33 463.728 874.901C465.344 875.66 466.331 876.106 466.392 876.106C466.429 876.106 466.872 876.3 467.377 876.537C467.882 876.774 468.623 877.117 469.025 877.298C469.96 877.722 471.013 878.204 471.974 878.647C472.392 878.84 473.334 879.268 474.067 879.596C475.639 880.303 476.375 880.636 477.492 881.151C481.37 882.941 481.114 882.886 482.439 882.191C483.029 881.881 485.091 880.927 485.17 880.927C485.204 880.927 485.674 880.72 486.214 880.466C486.754 880.214 487.424 879.905 487.703 879.781C487.982 879.658 488.581 879.385 489.035 879.176C489.489 878.966 490.517 878.5 491.319 878.138C492.121 877.777 493.006 877.376 493.285 877.248C494.342 876.763 495.51 876.232 497.597 875.286C498.784 874.748 500.039 874.177 500.389 874.016C502.035 873.255 502.818 872.898 504.702 872.052C506.646 871.177 507.25 870.902 508.729 870.216C511.018 869.155 511.602 868.894 512.027 868.741C512.289 868.648 512.503 868.532 512.503 868.484C512.503 868.435 512.66 868.356 512.851 868.308C513.043 868.26 513.628 868.019 514.151 867.773C514.675 867.526 515.446 867.167 515.864 866.975C516.283 866.783 517.008 866.447 517.474 866.229C517.94 866.01 518.351 865.831 518.386 865.831C518.441 865.831 520.093 865.079 521.319 864.496C521.529 864.397 522.727 863.852 523.983 863.286C525.238 862.719 526.552 862.125 526.9 861.965C527.25 861.805 527.935 861.491 528.422 861.268C528.911 861.045 529.539 860.758 529.818 860.629C530.097 860.502 530.982 860.102 531.784 859.741C532.586 859.381 533.528 858.954 533.877 858.793C535.749 857.93 536.787 857.457 538.761 856.57C539.563 856.209 540.534 855.769 540.917 855.593C541.607 855.275 542.222 854.995 543.581 854.378C543.965 854.204 544.779 853.827 545.392 853.54C546.004 853.254 546.535 853.019 546.573 853.019C546.641 853.019 548.682 852.085 549.036 851.891C549.359 851.713 549.385 789.974 549.062 789.974C548.936 789.974 548.551 790.114 548.205 790.285" id="path3" fill="#2C346C" fill-rule="evenodd" stroke="none" />
      </g>
    </g>
  </g>
</svg>